PathFileType	4	(X/Y/Z)	 s06c0301.trc
DataRate	CameraRate	NumFrames	NumMarkers	Units	OrigDataRate	OrigDataStartFrame	OrigNumFrames
200	200	4	48	mm	200	1	2000
Frame#	Time	racr			lacr			c7			jug			rlel			rdr			llel			ldr			s2			lic			ric			lasi			rasi			rpsi			lpsi			rgt			lgt			rth1			rth2			rth3			rth4			rlfc			rmfc			rsh1			rsh2			rsh3			rsh4			rlmal			rcal			rtoe			rmt5			lth1			lth2			lth4			lth3			llfc			lmfc			llmal			lcal			lmt5			lsh1			lsh2			lsh3			lsh4			ltoe			SBIKE			LBIKE			RBIKE			
		X1	Y1	Z1	X2	Y2	Z2	X3	Y3	Z3	X4	Y4	Z4	X5	Y5	Z5	X6	Y6	Z6	X7	Y7	Z7	X8	Y8	Z8	X9	Y9	Z9	X10	Y10	Z10	X11	Y11	Z11	X12	Y12	Z12	X13	Y13	Z13	X14	Y14	Z14	X15	Y15	Z15	X16	Y16	Z16	X17	Y17	Z17	X18	Y18	Z18	X19	Y19	Z19	X20	Y20	Z20	X21	Y21	Z21	X22	Y22	Z22	X23	Y23	Z23	X24	Y24	Z24	X25	Y25	Z25	X26	Y26	Z26	X27	Y27	Z27	X28	Y28	Z28	X29	Y29	Z29	X30	Y30	Z30	X31	Y31	Z31	X32	Y32	Z32	X33	Y33	Z33	X34	Y34	Z34	X35	Y35	Z35	X36	Y36	Z36	X37	Y37	Z37	X38	Y38	Z38	X39	Y39	Z39	X40	Y40	Z40	X41	Y41	Z41	X42	Y42	Z42	X43	Y43	Z43	X44	Y44	Z44	X45	Y45	Z45	X46	Y46	Z46	X47	Y47	Z47	X48	Y48	Z48	
1	0.0050	407.531144	1289.218148	-58.698239	425.400235	1301.100632	-382.163913	408.802925	1401.204395	-216.217700	420.885752	1228.859937	-207.949011	509.734998	1067.330233	19.476535	711.173092	918.716275	-48.940224	507.251024	1061.960205	-460.013742	709.975837	925.881804	-389.271034	-107.752896	1165.794012	-216.553749	83.709025	1103.282228	-381.151862	44.832877	1122.279053	-45.016325	78.066197	1044.816643	-350.847917	NaN	NaN	NaN	-64.808246	1198.622561	-192.621871	-66.291399	1191.243038	-253.492928	-6.033659	1071.807553	-12.201082	29.039364	1046.472066	-415.708433	95.090871	993.328062	-9.263750	180.020372	959.724805	-11.394398	233.164451	890.859628	-17.481216	198.896613	987.844735	-28.846610	296.225992	805.436354	-35.394152	298.478163	780.632459	-144.917762	280.552500	683.517163	-10.506959	290.916368	598.704630	-32.802897	260.958443	517.271956	-37.384929	314.072654	600.871278	-64.311189	247.852181	431.728572	-45.125090	189.733473	396.717940	-95.590268	464.769611	407.805942	-101.767216	372.738873	375.220150	-29.344595	72.950378	935.954762	-423.537074	141.063218	883.602626	-415.446109	169.318095	904.320978	-402.955052	174.533564	800.067193	-409.541593	200.733724	692.903874	-384.038966	200.064471	673.300141	-270.292057	-16.966489	390.475970	-383.771047	-93.959175	389.615897	-338.083301	72.822947	281.200908	-403.739783	141.471149	605.461958	-409.473277	110.457358	525.799992	-392.274491	42.625995	467.539526	-392.434334	131.640243	514.738432	-361.338823	153.559834	256.117372	-343.310089	-204.471471	868.675433	-212.567478	-48.798861	84.006509	-419.244134	-49.985666	79.429001	-21.872937	
2	0.0100	407.629398	1289.222706	-58.735979	425.476125	1301.161001	-382.183661	408.887363	1401.203867	-216.270945	420.930223	1228.840134	-207.990695	509.725929	1067.306437	19.533258	711.184187	918.734665	-48.944645	507.283037	1061.964322	-460.035237	709.972030	925.896638	-389.299337	-107.684506	1165.785982	-216.595435	83.780727	1103.195968	-381.209285	44.874325	1122.283975	-45.032555	78.151023	1044.715989	-350.922285	NaN	NaN	NaN	-64.156612	1198.356210	-193.058445	-66.234697	1191.237040	-253.520850	-5.946941	1071.897656	-12.201382	29.053922	1046.390900	-415.708857	95.224317	993.528237	-9.267325	180.139863	959.919361	-11.439085	233.328216	891.106815	-17.502065	198.909795	987.893270	-28.894137	296.384966	805.676669	-35.449113	298.656985	780.811274	-144.967508	280.658465	683.809301	-10.557908	290.950778	598.891248	-32.840858	260.901967	517.526890	-37.416872	314.080155	601.120021	-64.359497	247.747730	432.002173	-45.152860	189.605009	397.057510	-95.613710	464.660021	408.153963	-101.770707	372.660102	375.470695	-29.346557	72.898946	935.843110	-423.584968	140.982545	883.455489	-415.518430	169.230331	904.098464	-403.025713	174.394365	799.882231	-409.610827	200.566928	692.719943	-384.109745	199.916442	673.095145	-270.379308	-16.948846	390.169541	-383.751702	-93.951649	389.266310	-338.080789	72.889792	280.895625	-403.747306	141.289853	605.227789	-409.569219	110.373737	525.552632	-392.322027	42.572972	467.258578	-392.447626	131.547256	514.549920	-361.407911	153.643595	255.893431	-343.336529	-204.470353	868.664707	-212.566879	-48.800644	84.024014	-419.252427	-50.089051	79.704731	-21.667603	
3	0.0150	407.720390	1289.217658	-58.763229	425.542556	1301.195474	-382.212905	408.950867	1401.214962	-216.303964	421.055600	1228.842810	-208.017533	509.699155	1067.274775	19.600110	711.177595	918.728553	-48.928078	507.297487	1061.988543	-460.057223	709.973445	925.911720	-389.303596	-107.636496	1165.783928	-216.620411	83.851603	1103.120207	-381.260652	44.920372	1122.294205	-45.040938	78.229049	1044.573920	-350.945538	NaN	NaN	NaN	-64.131591	1198.367647	-193.074071	-66.181092	1191.226731	-253.557915	-5.894720	1072.009808	-12.199106	29.101639	1046.297526	-415.717090	95.325422	993.640691	-9.298445	180.255343	960.099218	-11.452172	233.495099	891.291357	-17.516193	199.140533	988.293077	-28.867675	296.606065	805.926721	-35.487040	298.830434	781.005831	-145.049871	280.779772	684.045256	-10.590117	290.967617	599.092018	-32.856473	260.867192	517.760055	-37.433041	314.126279	601.311702	-64.376308	247.650826	432.263517	-45.159211	189.480587	397.363268	-95.602463	464.561261	408.491961	-101.761530	372.599380	375.767608	-29.355489	72.844397	935.723697	-423.611165	140.897541	883.277799	-415.596506	169.172973	903.917662	-403.109409	174.273978	799.700286	-409.664821	200.395467	692.534716	-384.179086	199.795977	672.911064	-270.461574	-16.950465	389.848729	-383.750635	-93.948200	388.933628	-338.046939	72.956534	280.608531	-403.729805	141.157196	605.007566	-409.624715	110.270021	525.336413	-392.382801	42.493307	467.022058	-392.467440	131.474414	514.317290	-361.463556	153.726651	255.689321	-343.345158	-204.474531	868.664103	-212.556033	-48.786233	84.020480	-419.243831	-50.080908	79.729933	-21.656506	
4	0.0200	407.571600	1289.864218	-58.155749	425.547723	1301.439664	-383.051555	409.026527	1401.204648	-216.348034	421.046477	1228.793913	-208.086895	509.685619	1067.221878	19.686147	711.190191	918.730243	-48.922415	507.284633	1062.098768	-460.445602	709.985262	925.912045	-389.300821	-107.237762	1166.001916	-217.019566	83.921664	1102.986882	-381.324324	44.770147	1122.286762	-45.088367	78.296636	1044.436797	-350.956233	NaN	NaN	NaN	-64.831748	1198.419097	-192.413419	-66.302574	1191.355788	-253.615089	-5.825253	1072.139995	-12.195527	29.114197	1046.240293	-415.683704	95.456745	993.804528	-9.332569	180.390889	960.300138	-11.506207	233.672074	891.525209	-17.516044	199.357072	988.420355	-28.937600	296.975644	806.022593	-35.446938	299.014220	781.274203	-145.092409	280.892535	684.269689	-10.619609	290.805450	599.227864	-33.028402	260.869584	517.966946	-37.438828	314.223239	601.479465	-64.459116	247.750825	432.288034	-45.314844	189.089910	398.020403	-95.292054	464.457388	408.816960	-101.718587	372.516951	376.103021	-29.353626	72.798531	935.611391	-423.661933	141.060100	882.387051	-415.327258	169.046077	903.697968	-403.033739	174.124484	799.490547	-409.706088	200.249633	692.181457	-384.314802	199.674968	672.743695	-270.510879	-16.969776	389.514229	-383.741016	-93.928145	388.562504	-338.045114	73.000711	280.402131	-403.714388	141.028749	604.827478	-409.688152	110.060690	524.976855	-392.388493	42.271006	466.965158	-392.814096	131.464415	514.068256	-361.564414	153.799969	255.472015	-343.348533	-204.562910	868.644733	-212.774440	-48.772178	84.040533	-419.228462	-49.995526	79.403162	-21.887036	
